<?xml version="1.0" encoding="utf-8"?>
<!-- Generator: Adobe Illustrator 18.0.0, SVG Export Plug-In . SVG Version: 6.00 Build 0)  -->
<!DOCTYPE svg PUBLIC "-//W3C//DTD SVG 1.1//EN" "http://www.w3.org/Graphics/SVG/1.1/DTD/svg11.dtd">
<svg version="1.1" id="Layer_3_copy" xmlns="http://www.w3.org/2000/svg" xmlns:xlink="http://www.w3.org/1999/xlink" x="0px"
	 y="0px" viewBox="0 0 1296 1296" enable-background="new 0 0 1296 1296" xml:space="preserve">
<g>
	<g>
		<g>
			<g>
				<g>
					<path fill="#38B1E8" d="M396.2,452v143.1H375V392.8l90.1,110.4l87.8-110.4v202.3h-21.2V452L464,535.6L396.2,452z"/>
					<path fill="#38B1E8" d="M591.6,498.1c0-59.7,40-96.1,98.6-96.1h19.4l-5.1,21.2h-12.1c-47.2,0-78,28.4-78,74.7
						c0,47.8,30.8,75.8,78,75.8h12.1l5.1,21.2h-19.4C631.6,595.1,591.6,558.6,591.6,498.1z"/>
					<path fill="#38B1E8" d="M760.6,453.1v141.9h-21.2V392.8L863,544.3V401.9h21.2v202.3L760.6,453.1z"/>
					<path fill="#38B1E8" d="M369,909.1l5.8-23.7h37.6c45.6,0,68-27.7,68-60.4s-19.9-60.4-68-60.4h-21.2l73.8-80.7H362.5v-23.7
						h152.7l-77.8,85.2c45.6,6.9,68,40,68,79.4c0,45.2-30.2,83.8-91.6,83.8H369V909.1z"/>
					<path fill="#38B1E8" d="M546,821.5c0-36.2,13.4-54.1,40.7-85.8l64.4-74.9h31.1l-64.4,73.8c5.8-1.6,12.3-2.9,19.2-2.9
						c46,0,84.3,35.8,84.3,90.1c0,54.1-38.7,91.6-87.6,91.6C584.9,913.2,546,875.8,546,821.5z M696,821.5
						c0-38.2-26.2-67.3-62.4-67.3c-36.2,0-62.4,28.8-62.4,67.3c0,38.2,26.2,67.3,62.4,67.3C669.8,888.8,696,859.7,696,821.5z"/>
				</g>
				<g>
					<polygon fill="#38B1E8" points="960,455.1 960,401.9 937.8,401.9 937.8,428.3 					"/>
					<polygon fill="#38B1E8" points="937.8,458.1 937.8,595.1 960,595.1 960,484.7 					"/>
				</g>
			</g>
		</g>
		<g>
			<g>
				<path fill="#38B1E8" d="M881.1,914c-31.5,0-62.8-11.4-87.2-33.8c-25.5-23.2-40.5-55-42-89.6c-1.6-34.4,10.3-67.5,33.8-93
					c23.5-25.5,55-40.5,89.6-42c34.4-1.6,67.5,10.3,93,33.8c38.7,35.3,52.1,89.9,34.4,139.3l-23.9-8.7
					c14.3-39.6,3.4-83.4-27.7-111.8c-20.6-18.8-46.9-28.4-74.7-27c-27.7,1.3-53.2,13.2-72,33.8c-18.8,20.6-28.4,46.9-27,74.7
					c1.3,27.7,13.2,53.2,33.8,72c36.2,33.1,91.2,36.2,131,7.4l15,20.6C934.3,905.8,907.7,914,881.1,914z"/>
				<g>
					<polygon fill="#38B1E8" points="1021.4,831.1 967.1,863.3 966.2,800 					"/>
				</g>
			</g>
		</g>
		<g>
			<g>
				<path fill="#38B1E8" d="M676.1,1264.5c-151.3,0-295.3-55.7-407.9-158.5C86.7,940.4,23.4,684,106.6,452.9l112.2,40.5
					C151.9,679.1,202.9,885,348.6,1018c198.3,181.1,506.7,167,687.6-31.3c181.1-198.3,167-506.7-31.3-687.6
					c-170.1-155.4-428.3-169.9-614.2-34.6l-70.2-96.3C431.8,87.2,569,46.5,707.2,53.2c139.9,6.9,274.3,63,378,157.8
					c119.6,109.1,189.3,258.2,196.7,420c7.4,161.6-48.7,316.5-157.8,436.1c-109.1,119.6-258.2,189.3-420,196.7
					C694.9,1264.3,685.5,1264.5,676.1,1264.5z"/>
				<g>
					<polygon fill="#38B1E8" points="17.6,441.5 273.3,290.2 276.4,587.3 					"/>
				</g>
			</g>
		</g>
	</g>
	<g>
		<path fill="#38B1E8" d="M1123.9,1163.1c0-23.9,16.6-42.4,41.9-42.4c25.3,0,41.9,18.6,41.9,42.4c0,23.9-16.8,43.1-41.9,43.1
			C1140.7,1206.2,1123.9,1187,1123.9,1163.1z M1199.8,1163.1c0-19.4-13.4-34.8-33.9-34.8c-20.5,0-33.9,15.4-33.9,34.8
			c0,19.6,13.6,35.5,33.9,35.5C1186.2,1198.6,1199.8,1182.7,1199.8,1163.1z M1158.9,1170v20h-8.5v-53.2h13.1
			c11.7,0,18.9,7.1,18.9,18.6c0,8.8-4.6,14.7-12,16.8l13.1,17.9h-10.1L1158.9,1170z M1158.9,1144.9v20.9h3.4
			c7.2,0,11.5-3.9,11.5-10.4c0-6.5-4.2-10.4-10.6-10.4H1158.9z"/>
	</g>
</g>
</svg>
