<?xml version="1.0" encoding="utf-8"?>
<!-- Generator: Adobe Illustrator 18.0.0, SVG Export Plug-In . SVG Version: 6.00 Build 0)  -->
<!DOCTYPE svg PUBLIC "-//W3C//DTD SVG 1.1//EN" "http://www.w3.org/Graphics/SVG/1.1/DTD/svg11.dtd">
<svg version="1.1" id="Layer_3_copy" xmlns="http://www.w3.org/2000/svg" xmlns:xlink="http://www.w3.org/1999/xlink" x="0px"
	 y="0px" viewBox="0 0 1296 1296" enable-background="new 0 0 1296 1296" xml:space="preserve">
<g>
	<g>
		<g>
			<g>
				<g>
					<path fill="#38B1E8" d="M394.3,446.6v143.1h-21.3V387.4l90.1,110.4L551,387.4v202.4h-21.3V446.6L462,530.2L394.3,446.6z"/>
					<path fill="#38B1E8" d="M589.6,492.6c0-59.6,40.1-96,98.6-96h19.5l-5.2,21.3h-12.1c-47.1,0-78,28.3-78,74.7
						c0,47.8,30.9,75.8,78,75.8h12.1l5.2,21.3h-19.5C629.7,589.8,589.6,553.3,589.6,492.6z"/>
					<path fill="#38B1E8" d="M758.5,447.7v142h-21.3V387.4L860.8,539V396.6h21.3V599L758.5,447.7z"/>
				</g>
				<g>
					<polygon fill="#38B1E8" points="957.9,449.8 957.9,396.6 935.8,396.6 935.8,423 					"/>
					<polygon fill="#38B1E8" points="935.8,452.6 935.8,589.8 957.9,589.8 957.9,479.4 					"/>
				</g>
			</g>
		</g>
		<g>
			<g>
				<path fill="#38B1E8" d="M674,1259.3c-151.4,0-295.4-55.7-407.9-158.5C84.7,935.2,21.2,678.8,104.5,447.7l112.1,40.4
					c-66.9,185.7-15.9,391.6,129.8,524.7c198.2,181,506.7,167,687.7-31.3c181-198.2,167-506.7-31.3-687.7
					c-170-155.3-428.4-169.8-614.2-34.6l-70.1-96.4C429.8,81.9,567.2,41.1,705.3,48c140,7,274.3,63,378,157.7
					c119.5,109.1,189.4,258.3,196.8,420c7.4,161.7-48.7,316.6-157.9,436.1s-258.3,189.4-420,196.8
					C692.8,1259.1,683.4,1259.3,674,1259.3z"/>
				<g>
					<polygon fill="#38B1E8" points="15.4,436.1 271.2,284.8 274.3,582 					"/>
				</g>
			</g>
		</g>
		<g>
			<g>
				<path fill="#38B1E8" d="M832.9,935.2c-37.3,0-74.4-13.5-103.4-39.9c-30.2-27.6-47.8-65.2-49.7-106.1
					c-1.9-40.8,12.3-80,39.9-110.2c27.6-30.2,65.2-47.8,106.1-49.7c40.8-1.8,80,12.3,110.2,39.9c45.8,41.8,61.8,106.6,40.8,165
					l-28.3-10.2c16.9-46.9,4-98.9-32.8-132.5c-24.3-22.1-55.7-33.5-88.5-32c-32.8,1.5-63.1,15.7-85.2,39.9
					c-22.1,24.3-33.5,55.7-32,88.5c1.5,32.8,15.7,63.1,39.9,85.2c43,39.2,108.2,42.9,155.2,8.7l17.7,24.3
					C896,925.6,864.4,935.2,832.9,935.2z"/>
				<g>
					<polygon fill="#38B1E8" points="999.2,836.9 934.7,875.3 933.7,800.2 					"/>
				</g>
			</g>
		</g>
		<g>
			<path fill="#38B1E8" d="M503.1,935.2c-84.4,0-153-68.6-153-153s68.6-153,153-153c35.1,0,69.4,12.2,96.6,34.3l-18.7,23
				c-21.9-17.8-49.6-27.7-77.9-27.7c-68.1,0-123.4,55.4-123.4,123.4c0,68.1,55.4,123.4,123.4,123.4c63,0,115.2-47.5,122.5-108.6H557
				v-29.6h99.1v14.8C656.1,866.5,587.5,935.2,503.1,935.2z"/>
			<g>
				<polygon fill="#38B1E8" points="609.5,643.4 624.3,715.7 554.3,692.4 				"/>
			</g>
		</g>
	</g>
	<g>
		<path fill="#38B1E8" d="M1122,1171.9c0-23.9,16.6-42.4,41.9-42.4c25.3,0,41.9,18.6,41.9,42.4s-16.8,43.1-41.9,43.1
			C1138.7,1215,1122,1195.8,1122,1171.9z M1197.8,1171.9c0-19.4-13.4-34.8-33.9-34.8c-20.5,0-33.9,15.4-33.9,34.8
			c0,19.6,13.6,35.5,33.9,35.5C1184.2,1207.4,1197.8,1191.5,1197.8,1171.9z M1157,1178.8v20h-8.5v-53.2h13.1
			c11.7,0,18.9,7.1,18.9,18.6c0,8.8-4.6,14.7-12,16.8l13.1,17.9h-10.1L1157,1178.8z M1157,1153.7v20.9h3.4c7.2,0,11.5-3.9,11.5-10.4
			c0-6.5-4.2-10.4-10.6-10.4H1157z"/>
	</g>
</g>
</svg>
