<?xml version="1.0" encoding="utf-8"?>
<!-- Generator: Adobe Illustrator 18.0.0, SVG Export Plug-In . SVG Version: 6.00 Build 0)  -->
<!DOCTYPE svg PUBLIC "-//W3C//DTD SVG 1.1//EN" "http://www.w3.org/Graphics/SVG/1.1/DTD/svg11.dtd">
<svg version="1.1" id="Layer_1" xmlns="http://www.w3.org/2000/svg" xmlns:xlink="http://www.w3.org/1999/xlink" x="0px" y="0px"
	 viewBox="0 0 1600 400" enable-background="new 0 0 1600 400" xml:space="preserve">
<g>
	<g>
		<g>
			<g>
				<g>
					<path fill="#38B1E8" d="M135.1,144.6v39.3h-5.8v-55.6l24.7,30.3l24.1-30.3v55.6h-5.8v-39.3l-18.6,23L135.1,144.6z"/>
					<path fill="#38B1E8" d="M188.7,157.2c0-16.4,11-26.4,27.1-26.4h5.3l-1.4,5.8h-3.3c-13,0-21.4,7.8-21.4,20.5
						c0,13.1,8.5,20.8,21.4,20.8h3.3l1.4,5.8h-5.3C199.7,183.9,188.7,173.9,188.7,157.2z"/>
					<path fill="#38B1E8" d="M235.2,144.9v39h-5.8v-55.6l34,41.6v-39.1h5.8v55.6L235.2,144.9z"/>
					<path fill="#38B1E8" d="M127.6,270.2l1.6-6.5h10.3c12.5,0,18.7-7.6,18.7-16.6c0-9-5.5-16.6-18.7-16.6h-5.8l20.3-22.2h-28.1
						v-6.5h41.9l-21.4,23.4c12.5,1.9,18.7,11,18.7,21.8c0,12.4-8.3,23-25.2,23h-12.3V270.2z"/>
					<path fill="#38B1E8" d="M176.2,246.1c0-9.9,3.7-14.9,11.2-23.6l17.7-20.6h8.5l-17.7,20.3c1.6-0.4,3.4-0.8,5.3-0.8
						c12.7,0,23.2,9.8,23.2,24.7c0,14.9-10.6,25.2-24.1,25.2C186.9,271.3,176.2,261,176.2,246.1z M217.4,246.1
						c0-10.5-7.2-18.5-17.1-18.5c-9.9,0-17.1,7.9-17.1,18.5c0,10.5,7.2,18.5,17.1,18.5C210.2,264.6,217.4,256.6,217.4,246.1z"/>
				</g>
				<g>
					<polygon fill="#38B1E8" points="290,145.4 290,130.8 283.9,130.8 283.9,138.1 					"/>
					<polygon fill="#38B1E8" points="283.9,146.2 283.9,183.9 290,183.9 290,153.5 					"/>
				</g>
			</g>
		</g>
		<g>
			<g>
				<path fill="#38B1E8" d="M268.3,271.5c-8.7,0-17.3-3.1-24-9.3c-7-6.4-11.1-15.1-11.5-24.6c-0.4-9.5,2.8-18.5,9.3-25.5
					c6.4-7,15.1-11.1,24.6-11.5c9.5-0.4,18.5,2.8,25.5,9.3c10.6,9.7,14.3,24.7,9.5,38.3l-6.6-2.4c3.9-10.9,0.9-22.9-7.6-30.7
					c-5.7-5.2-12.9-7.8-20.5-7.4c-7.6,0.4-14.6,3.6-19.8,9.3c-5.2,5.7-7.8,12.9-7.4,20.5c0.4,7.6,3.6,14.6,9.3,19.8
					c9.9,9.1,25.1,9.9,36,2l4.1,5.7C282.9,269.2,275.6,271.5,268.3,271.5z"/>
				<g>
					<polygon fill="#38B1E8" points="306.8,248.7 291.9,257.6 291.7,240.2 					"/>
				</g>
			</g>
		</g>
		<g>
			<g>
				<path fill="#38B1E8" d="M212,367.8c-41.6,0-81.1-15.3-112.1-43.5c-49.9-45.5-67.2-116-44.4-179.5l30.8,11.1
					C67.9,207,82,263.5,122,300.1c54.5,49.7,139.2,45.9,188.9-8.6c49.7-54.5,45.9-139.2-8.6-188.9c-46.7-42.7-117.7-46.7-168.8-9.5
					l-19.3-26.5c30.6-22.2,68.3-33.4,106.2-31.6c38.4,1.9,75.4,17.3,103.9,43.4c32.9,30,52,70.9,54,115.4c2,44.4-13.4,87-43.4,119.8
					s-70.9,52-115.4,54C217.1,367.8,214.5,367.8,212,367.8z"/>
				<g>
					<polygon fill="#38B1E8" points="31,141.7 101.3,100.1 102.2,181.7 					"/>
				</g>
			</g>
		</g>
	</g>
	<g>
		<path fill="#38B1E8" d="M508.1,245.7h-43l-4.8,11.4h-30.3L487,135.3l56.9,121.8h-30.6L508.1,245.7z M486.1,196l-10.7,25.3h21.9
			L486.1,196z"/>
		<path fill="#38B1E8" d="M592.1,141h39.2c33.3,0,57.7,23.4,57.7,57.7c0,35-24.4,58.4-57.7,58.4h-39.2V141z M621,228.9h8.4
			c17.9,0,29.7-12.2,29.7-30.3c0-17.7-11.8-29.5-29.7-29.5H621V228.9z"/>
		<path fill="#38B1E8" d="M723.9,141h30.6l27,61.1l26.1-61.1h30.1l-56.9,121.8L723.9,141z"/>
		<path fill="#38B1E8" d="M935.1,245.7h-43l-4.8,11.4h-30.3L914,135.3l56.9,121.8h-30.6L935.1,245.7z M913.1,196l-10.7,25.3h21.9
			L913.1,196z"/>
		<path fill="#38B1E8" d="M1046.8,198.7v58.4h-27.8V135.5l69.7,63.8V141h28v121.6L1046.8,198.7z"/>
		<path fill="#38B1E8" d="M1172.1,198.7c0-34.3,24.2-57.7,57.3-57.7h18.1l-4,28.2h-12.2c-17.7,0-29.3,11.8-29.3,29.5
			c0,18.1,11.6,30.3,29.3,30.3h12.2l4,28.2h-18.1C1196.3,257.1,1172.1,233.7,1172.1,198.7z"/>
		<path fill="#38B1E8" d="M1301.1,141h66.6l-4,26.6h-33.7V185h33.5v26.6h-33.5v18.8h33.7l4,26.6h-66.6V141z"/>
		<path fill="#38B1E8" d="M1425.5,141h39.2c33.3,0,57.7,23.4,57.7,57.7c0,35-24.4,58.4-57.7,58.4h-39.2V141z M1454.4,228.9h8.4
			c17.9,0,29.7-12.2,29.7-30.3c0-17.7-11.8-29.5-29.7-29.5h-8.4V228.9z"/>
	</g>
	<g>
		<path fill="#38B1E8" d="M1532.2,135.2c0-10.7,7.5-19,18.8-19c11.3,0,18.8,8.3,18.8,19c0,10.7-7.5,19.3-18.8,19.3
			S1532.2,145.9,1532.2,135.2z M1566.2,135.2c0-8.7-6-15.6-15.2-15.6c-9.2,0-15.2,6.9-15.2,15.6c0,8.8,6.1,15.9,15.2,15.9
			C1560.1,151.1,1566.2,144,1566.2,135.2z M1547.9,138.3v9h-3.8v-23.9h5.9c5.2,0,8.5,3.2,8.5,8.3c0,4-2.1,6.6-5.4,7.5l5.9,8h-4.5
			L1547.9,138.3z M1547.9,127v9.4h1.5c3.2,0,5.2-1.7,5.2-4.7c0-2.9-1.9-4.7-4.8-4.7H1547.9z"/>
	</g>
</g>
</svg>
