<?xml version="1.0" encoding="utf-8"?>
<!-- Generator: Adobe Illustrator 18.0.0, SVG Export Plug-In . SVG Version: 6.00 Build 0)  -->
<!DOCTYPE svg PUBLIC "-//W3C//DTD SVG 1.1//EN" "http://www.w3.org/Graphics/SVG/1.1/DTD/svg11.dtd">
<svg version="1.1" id="Layer_3_copy" xmlns="http://www.w3.org/2000/svg" xmlns:xlink="http://www.w3.org/1999/xlink" x="0px"
	 y="0px" viewBox="0 0 1296 1296" enable-background="new 0 0 1296 1296" xml:space="preserve">
<g>
	<g>
		<g>
			<g>
				<g>
					<path fill="#38B1E8" d="M399.8,403.2v143.1h-21.2V344l90.1,110.4L556.5,344v202.3h-21.2V403.2l-67.7,83.6L399.8,403.2z"/>
					<path fill="#38B1E8" d="M595.2,449.3c0-59.7,40-96.1,98.6-96.1h19.4l-5.1,21.2H696c-47.2,0-78,28.4-78,74.7
						c0,47.8,30.8,75.8,78,75.8h12.1l5.1,21.2h-19.4C635.2,546.3,595.2,509.8,595.2,449.3z"/>
					<path fill="#38B1E8" d="M764.2,404.3v141.9H743V344l123.6,151.6V353.1h21.2v202.3L764.2,404.3z"/>
					<path fill="#38B1E8" d="M372.6,860.3l5.8-23.7h37.6c45.6,0,68-27.7,68-60.4s-19.9-60.4-68-60.4h-21.2l73.8-80.7H366.1v-23.7
						h152.7L441,696.7c45.6,6.9,68,40,68,79.4c0,45.2-30.2,83.8-91.6,83.8h-44.7V860.3z"/>
					<path fill="#38B1E8" d="M549.6,772.7c0-36.2,13.4-54.1,40.7-85.8l64.4-74.9h31.1l-64.4,73.8c5.8-1.6,12.3-2.9,19.2-2.9
						c46,0,84.3,35.8,84.3,90.1c0,54.1-38.7,91.6-87.6,91.6C588.5,864.3,549.6,827,549.6,772.7z M699.6,772.7
						c0-38.2-26.2-67.3-62.4-67.3c-36.2,0-62.4,28.8-62.4,67.3c0,38.2,26.2,67.3,62.4,67.3C673.4,840,699.6,810.9,699.6,772.7z"/>
				</g>
				<g>
					<polygon fill="#38B1E8" points="963.6,406.3 963.6,353.1 941.4,353.1 941.4,379.5 					"/>
					<polygon fill="#38B1E8" points="941.4,409.2 941.4,546.3 963.6,546.3 963.6,435.8 					"/>
				</g>
			</g>
		</g>
		<g>
			<g>
				<path fill="#38B1E8" d="M884.7,865.2c-31.5,0-62.8-11.4-87.2-33.8c-25.5-23.2-40.5-55-42-89.6c-1.6-34.4,10.3-67.5,33.8-93
					c23.5-25.5,55-40.5,89.6-42c34.4-1.6,67.5,10.3,93,33.8c38.7,35.3,52.1,89.9,34.4,139.3l-23.9-8.7
					c14.3-39.6,3.4-83.4-27.7-111.8c-20.6-18.8-46.9-28.4-74.7-27c-27.7,1.3-53.2,13.2-72,33.8s-28.4,46.9-27,74.7
					c1.3,27.7,13.2,53.2,33.8,72c36.2,33.1,91.2,36.2,131,7.4l15,20.6C937.9,857,911.3,865.2,884.7,865.2z"/>
				<g>
					<polygon fill="#38B1E8" points="1025,782.3 970.7,814.5 969.8,751.2 					"/>
				</g>
			</g>
		</g>
		<g>
			<g>
				<path fill="#38B1E8" d="M679.7,1267.2c-151.3,0-295.3-55.7-407.9-158.5C90.3,943.1,27,686.7,110.2,455.6l112.2,40.5
					c-66.8,185.7-15.9,391.6,129.9,524.6c198.3,181.1,506.7,167,687.6-31.3c181.1-198.3,167-506.7-31.3-687.6
					c-170.1-155.4-428.3-169.9-614.2-34.6l-70.2-96.3C435.4,89.9,572.6,49.2,710.8,55.9c139.9,6.9,274.3,63,378,157.8
					c119.6,109.1,189.3,258.2,196.7,420c7.4,161.6-48.7,316.5-157.8,436.1s-258.2,189.3-420,196.7
					C698.5,1267,689.1,1267.2,679.7,1267.2z"/>
				<g>
					<polygon fill="#38B1E8" points="21.2,444.2 276.9,292.9 280,590 					"/>
				</g>
			</g>
		</g>
	</g>
	<g>
		<path fill="#38B1E8" d="M1126,1165.8c0-23.9,16.6-42.4,41.9-42.4c25.3,0,41.9,18.6,41.9,42.4s-16.8,43.1-41.9,43.1
			C1142.8,1208.9,1126,1189.7,1126,1165.8z M1201.8,1165.8c0-19.4-13.4-34.8-33.9-34.8c-20.5,0-33.9,15.4-33.9,34.8
			c0,19.6,13.6,35.5,33.9,35.5C1188.2,1201.3,1201.8,1185.4,1201.8,1165.8z M1161,1172.7v20h-8.5v-53.2h13.1
			c11.7,0,18.9,7.1,18.9,18.6c0,8.8-4.6,14.7-12,16.8l13.1,17.9h-10.1L1161,1172.7z M1161,1147.6v20.9h3.4c7.2,0,11.5-3.9,11.5-10.4
			c0-6.5-4.2-10.4-10.6-10.4H1161z"/>
	</g>
	<g>
		<path fill="#38B1E8" d="M420.8,959.5h-23.9l-2.6,6.3h-16.8l31.6-67.7l31.6,67.7h-17L420.8,959.5z M408.5,931.9l-5.9,14.1h12.2
			L408.5,931.9z"/>
		<path fill="#38B1E8" d="M468.5,901.3h21.8c18.5,0,32.1,13,32.1,32.1c0,19.5-13.5,32.5-32.1,32.5h-21.8V901.3z M484.6,950.2h4.7
			c9.9,0,16.5-6.8,16.5-16.8c0-9.8-6.6-16.4-16.5-16.4h-4.7V950.2z"/>
		<path fill="#38B1E8" d="M543.2,901.3h17l15,34l14.5-34h16.7L574.9,969L543.2,901.3z"/>
		<path fill="#38B1E8" d="M662.4,959.5h-23.9l-2.6,6.3H619l31.6-67.7l31.6,67.7h-17L662.4,959.5z M650.1,931.9l-5.9,14.1h12.2
			L650.1,931.9z"/>
		<path fill="#38B1E8" d="M725.6,933.4v32.5h-15.5v-67.6l38.7,35.5v-32.4h15.6v67.6L725.6,933.4z"/>
		<path fill="#38B1E8" d="M796.4,933.4c0-19,13.4-32.1,31.9-32.1h10.1l-2.2,15.7h-6.8c-9.8,0-16.3,6.6-16.3,16.4
			c0,10.1,6.5,16.8,16.3,16.8h6.8l2.2,15.7h-10.1C809.9,965.9,796.4,952.9,796.4,933.4z"/>
		<path fill="#38B1E8" d="M869.4,901.3h37l-2.2,14.8h-18.7v9.6h18.6v14.8h-18.6v10.5h18.7l2.2,14.8h-37V901.3z"/>
		<path fill="#38B1E8" d="M939.7,901.3h21.8c18.5,0,32.1,13,32.1,32.1c0,19.5-13.5,32.5-32.1,32.5h-21.8V901.3z M955.8,950.2h4.7
			c9.9,0,16.5-6.8,16.5-16.8c0-9.8-6.6-16.4-16.5-16.4h-4.7V950.2z"/>
	</g>
</g>
</svg>
